<svg width="43" height="43" viewBox="0 0 43 43" fill="none" xmlns="http://www.w3.org/2000/svg">
<path d="M21.5 0C9.6535 0 0 9.6535 0 21.5C0 33.3465 9.6535 43 21.5 43C33.3465 43 43 33.3465 43 21.5C43 9.6535 33.3465 0 21.5 0ZM28.724 26.445C29.3475 27.0685 29.3475 28.1005 28.724 28.724C28.4015 29.0465 27.993 29.197 27.5845 29.197C27.176 29.197 26.7675 29.0465 26.445 28.724L21.5 23.779L16.555 28.724C16.2325 29.0465 15.824 29.197 15.4155 29.197C15.007 29.197 14.5985 29.0465 14.276 28.724C13.6525 28.1005 13.6525 27.0685 14.276 26.445L19.221 21.5L14.276 16.555C13.6525 15.9315 13.6525 14.8995 14.276 14.276C14.8995 13.6525 15.9315 13.6525 16.555 14.276L21.5 19.221L26.445 14.276C27.0685 13.6525 28.1005 13.6525 28.724 14.276C29.3475 14.8995 29.3475 15.9315 28.724 16.555L23.779 21.5L28.724 26.445Z" fill="#22C55E"/>
</svg>
