<svg width="43" height="43" viewBox="0 0 43 43" fill="none" xmlns="http://www.w3.org/2000/svg">
<path fill-rule="evenodd" clip-rule="evenodd" d="M21.5 43C33.3741 43 43 33.3741 43 21.5C43 9.62588 33.3741 0 21.5 0C9.62588 0 0 9.62588 0 21.5C0 33.3741 9.62588 43 21.5 43Z" fill="#22C55E"/>
<path d="M13 14.5179C19.1822 14.5179 22.6483 14.5179 28.8304 14.5179M17.3973 14.5179V12.7589C17.3973 12.2924 17.5827 11.845 17.9125 11.5152C18.2424 11.1853 18.6898 11 19.1563 11H22.6741C23.1406 11 23.588 11.1853 23.9179 11.5152C24.2478 11.845 24.4331 12.2924 24.4331 12.7589V14.5179M17.3973 14.5179C16.367 14.5179 15.7893 14.5179 14.7589 14.5179V26.8304C14.7589 27.2969 14.9443 27.7443 15.2741 28.0742C15.604 28.404 16.0514 28.5894 16.5179 28.5894H25.3126C25.779 28.5894 26.2264 28.404 26.5563 28.0742C26.8862 27.7443 27.0715 27.2969 27.0715 26.8304V14.5179H24.4331M17.3973 14.5179H24.4331M19.1563 18.9152V24.192M22.6741 18.9152V24.192" stroke="white" stroke-width="2" stroke-linecap="round" stroke-linejoin="round"/>
</svg>
