<svg width="25" height="24" viewBox="0 0 25 24" fill="none" xmlns="http://www.w3.org/2000/svg">
<path d="M8.375 12.0037H22.8125" stroke="#052E16" stroke-width="2" stroke-linecap="round" stroke-linejoin="round"/>
<path d="M19.375 15.4412L22.8125 12.0037L19.375 8.56616" stroke="#052E16" stroke-width="2" stroke-linecap="round" stroke-linejoin="round"/>
<path d="M15.9379 16.125V20.25C15.9536 20.5979 15.8309 20.9379 15.5966 21.1956C15.3623 21.4533 15.0354 21.6077 14.6876 21.625H3.43732C3.08964 21.6074 2.76304 21.4529 2.52892 21.1953C2.2948 20.9376 2.1722 20.5978 2.18791 20.25V3.75C2.17196 3.40216 2.29448 3.06217 2.52864 2.80447C2.76281 2.54676 3.08955 2.39234 3.43732 2.375H14.6876C15.0354 2.39234 15.3623 2.54673 15.5966 2.80441C15.8309 3.06209 15.9536 3.40207 15.9379 3.75V7.875" stroke="#052E16" stroke-width="2" stroke-linecap="round" stroke-linejoin="round"/>
</svg>
