<svg width="43" height="43" viewBox="0 0 43 43" fill="none" xmlns="http://www.w3.org/2000/svg">
<path fill-rule="evenodd" clip-rule="evenodd" d="M43 21.5C43 33.3741 33.3741 43 21.5 43C9.62588 43 0 33.3741 0 21.5C0 9.62588 9.62588 0 21.5 0C33.3741 0 43 9.62588 43 21.5ZM32.3293 19.047C33.4757 19.047 34.4245 19.9957 34.4245 21.1421C34.4245 21.7351 34.1873 22.249 33.8117 22.6245C33.4362 23.0001 32.9223 23.2373 32.3293 23.2373L23.2373 23.2373V32.3293C23.2373 32.9223 23.0001 33.4362 22.6245 33.8117C22.249 34.1873 21.7351 34.4245 21.1421 34.4245C19.9957 34.4245 19.047 33.4757 19.047 32.3293V23.2373H9.95492C8.80853 23.2373 7.85979 22.2885 7.85979 21.1421C7.85979 19.9957 8.80853 19.047 9.95492 19.047H19.047V9.95493C19.047 8.80853 19.9957 7.85979 21.1421 7.85979C22.2885 7.85979 23.2373 8.80853 23.2373 9.95492V19.047L32.3293 19.047Z" fill="white"/>
</svg>
