<svg width="43" height="43" viewBox="0 0 43 43" fill="none" xmlns="http://www.w3.org/2000/svg">
<path fill-rule="evenodd" clip-rule="evenodd" d="M43 21.5C43 33.3741 33.3741 43 21.5 43C9.62588 43 0 33.3741 0 21.5C0 9.62588 9.62588 0 21.5 0C33.3741 0 43 9.62588 43 21.5ZM30.392 27.4291C31.2027 28.2397 31.2027 29.5814 30.392 30.392C29.9727 30.8113 29.4417 31.007 28.9106 31.007C28.3795 31.007 27.8484 30.8113 27.4291 30.392L21 23.963L14.5709 30.392C14.1516 30.8113 13.6205 31.007 13.0894 31.007C12.5584 31.007 12.0273 30.8113 11.608 30.392C10.7973 29.5814 10.7973 28.2397 11.608 27.4291L18.037 21L11.608 14.5709C10.7973 13.7603 10.7973 12.4186 11.608 11.608C12.4186 10.7973 13.7603 10.7973 14.5709 11.608L21 18.037L27.4291 11.608C28.2397 10.7973 29.5814 10.7973 30.392 11.608C31.2027 12.4186 31.2027 13.7603 30.392 14.5709L23.963 21L30.392 27.4291Z" fill="white"/>
</svg>
