<svg width="43" height="43" viewBox="0 0 43 43" fill="none" xmlns="http://www.w3.org/2000/svg">
<path fill-rule="evenodd" clip-rule="evenodd" d="M43 21.5C43 33.3741 33.3741 43 21.5 43C9.62588 43 0 33.3741 0 21.5C0 9.62588 9.62588 0 21.5 0C33.3741 0 43 9.62588 43 21.5ZM18.0551 11.4996C18.2468 11.3079 18.5067 11.2002 18.7778 11.2002H23.2222C23.4933 11.2002 23.7532 11.3079 23.9449 11.4996C24.1365 11.6912 24.2442 11.9512 24.2442 12.2222V13.2442H17.7558V12.2222C17.7558 11.9512 17.8634 11.6912 18.0551 11.4996ZM26.6447 12.2222V13.2442H28.7778H31C31.6629 13.2442 32.2002 13.7816 32.2002 14.4444C32.2002 15.1073 31.6629 15.6447 31 15.6447H29.978V30C29.978 30.9077 29.6174 31.7782 28.9756 32.42C28.3338 33.0619 27.4632 33.4224 26.5556 33.4224H15.4444C14.5368 33.4224 13.6662 33.0619 13.0244 32.42C12.3826 31.7782 12.022 30.9077 12.022 30V15.6447H11C10.3371 15.6447 9.79978 15.1073 9.79978 14.4444C9.79978 13.7816 10.3371 13.2442 11 13.2442H13.2222H15.3553V12.2222C15.3553 11.3145 15.7159 10.444 16.3577 9.80219C16.9996 9.16036 17.8701 8.79978 18.7778 8.79978H23.2222C24.1299 8.79978 25.0004 9.16036 25.6423 9.80219C26.2841 10.444 26.6447 11.3145 26.6447 12.2222ZM25.4444 15.6447H27.5776V30C27.5776 30.271 27.4699 30.531 27.2782 30.7227C27.0866 30.9143 26.8266 31.022 26.5556 31.022H15.4444C15.1734 31.022 14.9134 30.9143 14.7218 30.7227C14.5301 30.531 14.4224 30.271 14.4224 30V15.6447H16.5556H25.4444ZM19.978 20C19.978 19.3371 19.4406 18.7998 18.7778 18.7998C18.1149 18.7998 17.5776 19.3371 17.5776 20V26.6667C17.5776 27.3295 18.1149 27.8669 18.7778 27.8669C19.4406 27.8669 19.978 27.3295 19.978 26.6667V20ZM24.4224 20C24.4224 19.3371 23.8851 18.7998 23.2222 18.7998C22.5594 18.7998 22.022 19.3371 22.022 20V26.6667C22.022 27.3295 22.5594 27.8669 23.2222 27.8669C23.8851 27.8669 24.4224 27.3295 24.4224 26.6667V20Z" fill="white"/>
</svg>
