<svg xmlns="http://www.w3.org/2000/svg" version="1.1" xmlns:xlink="http://www.w3.org/1999/xlink" width="512" height="512" x="0" y="0" viewBox="0 0 512 512" style="enable-background:new 0 0 512 512" xml:space="preserve" class=""><g><path d="M256 0C114.62 0 0 114.62 0 256s114.62 256 256 256 256-114.62 256-256S397.38 0 256 0zm-75 235.31.24-.23a17.64 17.64 0 0 1 24.95 0l32.14 32.14v-129A17.64 17.64 0 0 1 256 120.58a17.64 17.64 0 0 1 17.64 17.64v129l32.14-32.14a17.64 17.64 0 0 1 25 0l.24.23a17.64 17.64 0 0 1 0 24.95l-62.5 62.49a17.63 17.63 0 0 1-24.94 0L181 260.26a17.66 17.66 0 0 1 0-24.95zm213 126a30.72 30.72 0 0 1-30.09 30.09H148.09A30.72 30.72 0 0 1 118 361.33v-46.9a17.64 17.64 0 0 1 17.64-17.64 17.64 17.64 0 0 1 17.64 17.64v41.71h205.44v-41.71a17.64 17.64 0 0 1 17.64-17.64A17.64 17.64 0 0 1 394 314.43z" data-name="Layer 2" fill="#ffffff" opacity="1" data-original="#000000" class=""></path></g></svg>