<svg xmlns="http://www.w3.org/2000/svg" version="1.1" xmlns:xlink="http://www.w3.org/1999/xlink" width="512" height="512" x="0" y="0" viewBox="0 0 300 300" style="enable-background:new 0 0 512 512" xml:space="preserve" class=""><g><path d="M149.996 0C67.157 0 .001 67.161.001 149.997S67.157 300 149.996 300s150.003-67.163 150.003-150.003S232.835 0 149.996 0zm71.306 107.945-14.247 14.247-29.001-28.999-11.002 11.002 29.001 29.001-71.132 71.126-28.999-28.996-11.002 11.002 28.999 28.999-7.088 7.088-.135-.135a5.612 5.612 0 0 1-3.582 2.575l-27.043 6.03a5.61 5.61 0 0 1-5.197-1.512 5.613 5.613 0 0 1-1.512-5.203l6.027-27.035a5.631 5.631 0 0 1 2.578-3.582l-.137-.137L192.3 78.941a4.304 4.304 0 0 1 6.082.005l22.922 22.917a4.302 4.302 0 0 1-.002 6.082z" fill="#ffffff" opacity="1" data-original="#000000" class=""></path></g></svg>