<svg width="43" height="43" viewBox="0 0 43 43" fill="none" xmlns="http://www.w3.org/2000/svg">
<path fill-rule="evenodd" clip-rule="evenodd" d="M43 21.5C43 33.3741 33.3741 43 21.5 43C9.62588 43 0 33.3741 0 21.5C0 9.62588 9.62588 0 21.5 0C33.3741 0 43 9.62588 43 21.5ZM30.8356 14.9468L28.9774 16.8051L25.1947 13.0227L23.7597 14.4577L27.5424 18.2404L18.2645 27.5175L14.4821 23.7355L13.047 25.1705L16.8295 28.9529L15.9049 29.8774L15.8873 29.8598C15.8362 29.9444 15.7684 30.0178 15.6881 30.0756C15.6078 30.1333 15.5167 30.1741 15.4201 30.1957L11.8929 30.9822C11.7724 31.0091 11.6471 31.0052 11.5286 30.9707C11.4101 30.9362 11.3022 30.8723 11.215 30.785C11.1275 30.6977 11.0636 30.5897 11.0291 30.471C10.9946 30.3523 10.9907 30.2269 11.0178 30.1063L11.8039 26.5801C11.8256 26.4836 11.8666 26.3925 11.9243 26.3122C11.9821 26.2319 12.0555 26.1641 12.1402 26.1129L12.1223 26.095L27.0529 11.1638C27.1582 11.0588 27.3009 10.9999 27.4496 11C27.5984 11.0001 27.741 11.0593 27.8461 11.1644L30.8359 14.1536C30.941 14.2588 31 14.4015 31 14.5503C31 14.699 30.9408 14.8417 30.8356 14.9468Z" fill="white"/>
</svg>
