<svg width="24" height="24" viewBox="0 0 24 24" fill="none" xmlns="http://www.w3.org/2000/svg">
<path d="M20.7735 16.2083C19.1579 17.7992 17.0066 18.7542 14.7246 18.8934C12.4427 19.0327 10.1878 18.3466 8.38462 16.9643L2.18029 23.0653C1.96025 23.2742 1.66555 23.3899 1.35966 23.3873C1.05376 23.3847 0.761143 23.264 0.544834 23.0513C0.328526 22.8386 0.205826 22.5509 0.203169 22.2501C0.20051 21.9493 0.318104 21.6595 0.530621 21.4431L6.73496 15.3422C5.26694 13.4896 4.57289 11.1561 4.79434 8.81765C5.0158 6.47918 6.13608 4.31185 7.92672 2.75767C9.71736 1.2035 12.0435 0.379539 14.4307 0.45384C16.8179 0.528141 19.0864 1.4951 20.7735 3.15752C21.6452 4.0143 22.3367 5.03157 22.8085 6.15122C23.2803 7.27087 23.5232 8.47096 23.5232 9.68292C23.5232 10.8949 23.2803 12.095 22.8085 13.2146C22.3367 14.3343 21.6452 15.3516 20.7735 16.2083ZM19.1238 4.78199C17.9705 3.6479 16.4529 2.94212 14.8297 2.7849C13.2065 2.62768 11.5781 3.02875 10.2219 3.91976C8.86574 4.81078 7.86568 6.13663 7.39213 7.6714C6.91859 9.20618 7.00086 10.8549 7.62493 12.3367C8.249 13.8186 9.37625 15.0418 10.8146 15.7979C12.253 16.5541 13.9135 16.7965 15.5133 16.4838C17.113 16.1711 18.553 15.3226 19.5879 14.0829C20.6228 12.8432 21.1885 11.2891 21.1888 9.68522C21.192 8.77384 21.0111 7.8709 20.6566 7.0288C20.3021 6.18671 19.7811 5.42222 19.1238 4.7797V4.78199Z" fill="#142C3D"/>
</svg>
