<svg xmlns="http://www.w3.org/2000/svg" version="1.1" xmlns:xlink="http://www.w3.org/1999/xlink" width="512" height="512" x="0" y="0" viewBox="0 0 362.001 362.001" style="enable-background:new 0 0 512 512" xml:space="preserve" class=""><g><path d="M181 0C81.196 0 0 81.196 0 181.001c0 99.804 81.196 181 181 181s181-81.196 181-181C362.001 81.196 280.805 0 181 0zM57.054 119.354c-2.092-8.016 2.71-16.21 10.726-18.302 6.602-1.722 13.319 1.24 16.654 6.816 7.514-12.02 17.209-22.7 28.581-31.252 20.094-15.111 44.038-23.099 69.241-23.099s49.147 7.987 69.241 23.099c19.421 14.605 34.003 35.389 41.059 58.523 2.417 7.924-2.048 16.307-9.972 18.724a15.022 15.022 0 0 1-4.381.656c-6.426 0-12.37-4.162-14.342-10.628-11.014-36.111-43.808-60.374-81.604-60.374-27.878 0-53.022 13.21-68.725 34.627 6.237-.901 12.614 2.21 15.573 8.159 3.689 7.417.668 16.421-6.749 20.11l-30.538 15.191a19.439 19.439 0 0 1-8.658 2.057c-2.656 0-5.299-.559-7.766-1.681-5.201-2.366-9.032-6.969-10.509-12.628l-7.831-29.998zm237.034 141.595c-1.27.331-2.544.49-3.798.49-5.267 0-10.162-2.802-12.855-7.306-7.514 12.02-17.209 22.701-28.581 31.253-20.094 15.111-44.037 23.099-69.241 23.099s-49.147-7.987-69.241-23.099c-19.421-14.604-34.003-35.389-41.059-58.523-2.417-7.924 2.048-16.307 9.972-18.724 7.926-2.417 16.307 2.048 18.724 9.972 11.013 36.111 43.808 60.374 81.604 60.374 27.878 0 53.022-13.21 68.725-34.627-6.236.901-12.614-2.21-15.573-8.159-3.689-7.417-.668-16.421 6.749-20.11l30.537-15.191c5.237-2.605 11.223-2.741 16.427-.375 5.201 2.367 9.031 6.97 10.508 12.629l7.829 29.997c2.091 8.014-2.711 16.208-10.727 18.3z" fill="#ffffff" opacity="1" data-original="#000000" class=""></path></g></svg>